<?xml version="1.0" encoding="utf-8"?>
<!-- Generator: Adobe Illustrator 16.0.0, SVG Export Plug-In . SVG Version: 6.00 Build 0)  -->
<!DOCTYPE svg PUBLIC "-//W3C//DTD SVG 1.1//EN" "http://www.w3.org/Graphics/SVG/1.1/DTD/svg11.dtd">
<svg version="1.1" id="Layer_1" xmlns="http://www.w3.org/2000/svg" xmlns:xlink="http://www.w3.org/1999/xlink" x="0px" y="0px"
	 width="512px" height="512px" viewBox="0 0 512 512" enable-background="new 0 0 512 512" xml:space="preserve">
<path d="M143.938,382.813c18.641-14.516,30.664-37.148,30.664-62.547c0-43.707-35.563-79.266-79.27-79.266
	s-79.266,35.559-79.266,79.266c0,25.398,12.023,48.031,30.66,62.547C20.422,398.461,0,428.016,0,464.867V497c0,8.285,6.715,15,15,15
	h160.668c8.281,0,15-6.715,15-15v-32.133C190.668,428.023,170.25,398.465,143.938,382.813z M46.066,320.266
	c0-27.164,22.102-49.266,49.27-49.266c27.164,0,49.266,22.102,49.266,49.266c0,27.168-22.102,49.27-49.266,49.27
	C68.168,369.535,46.066,347.434,46.066,320.266z M160.668,482H30v-17.133c0-36.086,29.195-65.332,65.332-65.332
	c36.086,0,65.332,29.195,65.332,65.332V482H160.668z"/>
<path d="M448.801,0H256c-34.906,0-63.199,28.242-63.199,63.199v289.199c0,12.27,14.07,19.445,24,12l60.266-45.199h171.734
	C483.707,319.199,512,290.957,512,256V63.199C512,28.293,483.758,0,448.801,0z M482,256c0,18.352-14.84,33.199-33.199,33.199
	H272.066c-3.246,0-6.402,1.055-9,3l-40.266,30.199V63.199C222.801,44.848,237.641,30,256,30h192.801
	C467.152,30,482,44.84,482,63.199V256z"/>
<path display="none" d="M432.734,80.332H272.066c-8.285,0-15,6.719-15,15c0,8.285,6.715,15,15,15h160.668c8.281,0,15-6.715,15-15
	C447.734,87.051,441.02,80.332,432.734,80.332z"/>
<path display="none" d="M432.734,144.602H272.066c-8.285,0-15,6.715-15,15c0,8.281,6.715,15,15,15h160.668c8.281,0,15-6.719,15-15
	C447.734,151.316,441.02,144.602,432.734,144.602z"/>
<path display="none" d="M352.398,208.867h-80.332c-8.285,0-15,6.715-15,15s6.715,15,15,15h80.332c8.285,0,15-6.715,15-15
	S360.684,208.867,352.398,208.867z"/>
</svg>
