<?xml version="1.0" encoding="utf-8"?>
<!-- Generator: Adobe Illustrator 16.0.0, SVG Export Plug-In . SVG Version: 6.00 Build 0)  -->
<!DOCTYPE svg PUBLIC "-//W3C//DTD SVG 1.1//EN" "http://www.w3.org/Graphics/SVG/1.1/DTD/svg11.dtd">
<svg version="1.1" id="Capa_1" xmlns="http://www.w3.org/2000/svg" xmlns:xlink="http://www.w3.org/1999/xlink" x="0px" y="0px"
	 width="300px" height="300px" viewBox="0 0 300 300" enable-background="new 0 0 300 300" xml:space="preserve">
<g>
	<g>
		<path d="M259.501,221.516c-6.343-5.799-9.981-14.02-9.981-22.557v-58.334c0-3.235-2.623-5.859-5.859-5.859
			c-3.235,0-5.859,2.624-5.859,5.859v58.334c0,11.818,5.027,23.192,13.793,31.206c3.151,2.88,4.957,6.978,4.957,11.243
			c0,8.398-6.833,15.232-15.232,15.232H58.503c-8.399,0-15.233-6.834-15.233-15.232c0-4.266,1.806-8.363,4.957-11.243
			c8.766-8.014,13.793-19.388,13.793-31.206V131.25c0-48.463,39.428-87.891,87.891-87.891c13.329,0,26.458,3.031,38.348,8.796
			c-4.133,6.639-6.529,14.466-6.529,22.845c0,23.909,19.45,43.359,43.359,43.359S268.448,98.908,268.448,75
			s-19.45-43.359-43.359-43.359c-11.205,0-21.431,4.272-29.135,11.274c-8.733-4.556-18.104-7.777-27.779-9.577
			c2.159-3.369,3.416-7.369,3.416-11.658C171.591,9.726,161.865,0,149.911,0s-21.68,9.726-21.68,21.679
			c0,4.285,1.254,8.28,3.408,11.647c-46.228,8.605-81.338,49.238-81.338,97.923v67.709c0,8.537-3.638,16.758-9.981,22.557
			c-5.573,5.094-8.769,12.344-8.769,19.892c0,14.861,12.091,26.952,26.952,26.952h54.368c2.822,17.904,18.355,31.641,37.04,31.641
			c18.685,0,34.218-13.736,37.04-31.641h54.367c14.861,0,26.953-12.091,26.953-26.952
			C268.271,233.859,265.074,226.609,259.501,221.516z M225.088,43.359c17.447,0,31.641,14.194,31.641,31.641
			s-14.193,31.641-31.641,31.641c-17.446,0-31.641-14.194-31.641-31.641S207.642,43.359,225.088,43.359z M149.911,11.718
			c5.493,0,9.961,4.468,9.961,9.96s-4.468,9.961-9.961,9.961c-5.493,0-9.961-4.469-9.961-9.961S144.418,11.718,149.911,11.718z
			 M149.911,288.281c-12.2,0-22.44-8.521-25.102-19.922h50.203C172.352,279.761,162.111,288.281,149.911,288.281z"/>
	</g>
</g>
<g display="none">
	<g display="inline">
		<path d="M84.286,125.269c-3.236,0-5.859,2.624-5.859,5.859v0.122c0,3.236,2.623,5.859,5.859,5.859s5.859-2.624,5.859-5.859v-0.122
			C90.146,127.892,87.522,125.269,84.286,125.269z"/>
	</g>
</g>
<g display="none">
	<g display="inline">
		<path d="M149.911,59.765c-28.752,0-54.592,17.103-65.828,43.572c-1.265,2.978,0.125,6.418,3.104,7.683
			c0.747,0.317,1.523,0.468,2.287,0.468c2.28,0,4.449-1.34,5.396-3.571c9.395-22.132,31-36.432,55.041-36.432
			c3.236,0,5.859-2.624,5.859-5.859C155.771,62.389,153.147,59.765,149.911,59.765z"/>
	</g>
</g>
<g display="none">
	<g display="inline">
		<path d="M227.154,56.012c-2.189-0.905-4.71-0.406-6.387,1.27l-6.738,6.738c-2.287,2.289-2.287,5.999,0,8.287
			c1.368,1.367,3.245,1.919,5.022,1.65V84.57c0,3.235,2.624,5.859,5.859,5.859c3.236,0,5.859-2.624,5.859-5.859V61.425
			C230.771,59.055,229.343,56.918,227.154,56.012z"/>
	</g>
</g>
</svg>
