<?xml version="1.0" encoding="iso-8859-1"?>
<!-- Generator: Adobe Illustrator 16.0.0, SVG Export Plug-In . SVG Version: 6.00 Build 0)  -->
<!DOCTYPE svg PUBLIC "-//W3C//DTD SVG 1.1//EN" "http://www.w3.org/Graphics/SVG/1.1/DTD/svg11.dtd">
<svg version="1.1" id="Capa_1" xmlns="http://www.w3.org/2000/svg" xmlns:xlink="http://www.w3.org/1999/xlink" x="0px" y="0px"
	 width="528.919px" height="528.919px" viewBox="0 0 528.919 528.919" style="enable-background:new 0 0 528.919 528.919;"
	 xml:space="preserve">
<g>
	<g>
		<path d="M264.459,483.019c-105.708,0-191.706-85.998-191.706-191.706c0-12.674-10.275-22.949-22.95-22.949
			c-12.674,0-22.95,10.275-22.95,22.949c0,131.018,106.589,237.606,237.605,237.606c131.018,0,237.606-106.589,237.606-237.606
			c0-116.961-84.968-214.395-196.409-233.96c-4.994-0.878-9.067-5.521-9.067-10.591V5.057c0-5.071-3.182-6.579-7.108-3.373
			l-84.621,69.162c-3.926,3.21-3.926,8.409,0,11.619l84.621,69.162c3.927,3.21,7.108,1.698,7.108-3.372v-36.723
			c0-5.07,4.061-8.516,9.012-7.427c85.995,18.883,150.567,95.625,150.567,187.207C456.165,397.021,370.167,483.019,264.459,483.019z
			"/>
	</g>
</g>
<g>
</g>
<g>
</g>
<g>
</g>
<g>
</g>
<g>
</g>
<g>
</g>
<g>
</g>
<g>
</g>
<g>
</g>
<g>
</g>
<g>
</g>
<g>
</g>
<g>
</g>
<g>
</g>
<g>
</g>
</svg>
