<?xml version="1.0" encoding="utf-8"?>
<!-- Generator: Adobe Illustrator 16.0.0, SVG Export Plug-In . SVG Version: 6.00 Build 0)  -->
<!DOCTYPE svg PUBLIC "-//W3C//DTD SVG 1.1//EN" "http://www.w3.org/Graphics/SVG/1.1/DTD/svg11.dtd">
<svg version="1.1" id="Layer_1" xmlns="http://www.w3.org/2000/svg" xmlns:xlink="http://www.w3.org/1999/xlink" x="0px" y="0px"
	 width="300px" height="300px" viewBox="0 0 300 300" enable-background="new 0 0 300 300" xml:space="preserve">
<g>
	<g>
		<path d="M296.287,142.816l-32.1-22.63c-5.815-4.1-13.854,0.075-13.854,7.184v13.841H96.208c-4.854,0-8.79,3.935-8.79,8.79
			s3.936,8.789,8.79,8.789h154.124v13.84c0,7.156,8.082,11.253,13.854,7.184l32.099-22.629
			C301.188,153.729,301.287,146.348,296.287,142.816z"/>
	</g>
</g>
<g>
	<g>
		<path d="M252.229,206.436c-4.2-2.43-9.578-0.994-12.009,3.207c-20.646,35.693-59.24,59.655-103.343,59.655
			c-65.781,0-119.298-53.517-119.298-119.298c0-65.781,53.517-119.298,119.298-119.298c44.132,0,82.709,23.984,103.342,59.653
			c2.431,4.203,7.81,5.636,12.01,3.208c4.201-2.43,5.637-7.808,3.207-12.009c-23.745-41.05-68.094-68.431-118.559-68.431
			C61.225,13.123,0,74.341,0,150c0,75.652,61.218,136.877,136.877,136.877c50.486,0,94.824-27.4,118.56-68.432
			C257.866,214.243,256.431,208.867,252.229,206.436z"/>
	</g>
</g>
</svg>
